<?xml version="1.0" encoding="UTF-8"?>
<svg id="uuid-912827cb-8743-486d-8ef3-9626a39f1b7f" data-name="Layer 1" xmlns="http://www.w3.org/2000/svg" xmlns:xlink="http://www.w3.org/1999/xlink" viewBox="0 0 711 502.98">
  <defs>
    <style>
      .uuid-4377002e-5504-4869-81af-5a599eda33a1, .uuid-448575f0-bc53-4545-8e2e-cde6d7041af7 {
        fill: #05007f;
      }

      .uuid-7a4b58b8-bf30-4064-a2f5-95a3ca72aaa0 {
        fill: #fff;
      }

      .uuid-448575f0-bc53-4545-8e2e-cde6d7041af7 {
        font-family: NeueMontreal-Regular, 'Neue Montreal';
        font-size: 35.1px;
        letter-spacing: .2em;
      }

      .uuid-afec4e5a-da94-4f74-926c-3534dfe60eab {
        fill: #ffce00;
      }

      .uuid-c4f5f387-e5c2-4423-8eef-da66c0693855 {
        fill: url(#uuid-f818c617-4768-40ee-908e-4a6ad01f552b);
      }
    </style>
    <linearGradient id="uuid-f818c617-4768-40ee-908e-4a6ad01f552b" x1="254.51" y1="51.26" x2="450.35" y2="247.1" gradientUnits="userSpaceOnUse">
      <stop offset="0" stop-color="#15a6ff"/>
      <stop offset=".45" stop-color="#0037bf"/>
      <stop offset="1" stop-color="#05007f"/>
    </linearGradient>
  </defs>
  <g>
    <path class="uuid-7a4b58b8-bf30-4064-a2f5-95a3ca72aaa0" d="M330.25,163.41c-.29.36-1.38.98-1.86,1.17-5.97,2.33-20-2.85-23.21-8.4-.34-.6-1.66-3.99-.27-3.93.47.03,4.32,2.31,5.27,2.71,4.62,1.97,10.88,3.56,15.87,3.92,1.48.1,2.93.03,4.41.09,1.44.52.52,3.52-.21,4.44Z"/>
    <path class="uuid-7a4b58b8-bf30-4064-a2f5-95a3ca72aaa0" d="M334.47,145.12c-.28.54-1.58,1.92-2.08,2.25-5.54,3.57-16.93-.8-22.01-3.84-3.81-2.29-10.18-6.86-8.38-12.07.17-.48.46-.6.58-.87.1-.22.05-.54.24-.87.07-.14,1.26-1.17,1.42-1.26.37-.21,1.35-.44,1.77-.32.68.19,3.21,2.17,4.15,2.73,3.74,2.19,9.05,4.7,13.16,6,2.71.86,6.15,1.17,8.81,2.02,2.95.94,3.71,3.54,2.35,6.23Z"/>
    <path class="uuid-7a4b58b8-bf30-4064-a2f5-95a3ca72aaa0" d="M339.72,124.42c-.82,2.8-3.59,3.92-6.29,3.86-7.34-.18-20.83-6.76-25.28-12.73-.38-.51-1.49-2.47-1.67-3.04-.78-2.68,1.12-8.8,4.63-8.55,3.55,2.76,7.05,5.57,10.92,7.9,4.3,2.59,8.75,4.4,13.18,6.63,1.24.63,4.38,2.07,4.69,3.39.14.59,0,1.96-.18,2.54Z"/>
    <path class="uuid-7a4b58b8-bf30-4064-a2f5-95a3ca72aaa0" d="M358.03,113.35c-1.2,1.28-2.71,2.69-3.91,3.82-1,.93-2.94,2.73-4.06,1.05.83-1.12,2.02-1.8,2.93-2.85,4.94-5.71,3.77-12.48-.96-17.81-3.2-3.61-10.87-8.58-15.79-7.56-2.72.56-4.41,4.25-2.85,6.53,2.03,2.93,11.66,5.67,11.08,9.9-.17,1.22-.68,1.68-1.84,1.88-3.07.57-11.93-3.9-14.87-5.6-7.25-4.19-19.33-13.58-9.54-21.9,4.3-3.65,10.78-2.88,15.8-1.3l5.45,2.27c.07.08-.16.35.03.37l.32-.34c7.33,3.87,18.38,9.33,21.05,17.82,1.56,4.95.67,9.9-2.85,13.72Z"/>
    <path class="uuid-7a4b58b8-bf30-4064-a2f5-95a3ca72aaa0" d="M410.25,141.14c-.43,5.25-8.95,18.05-12.38,22.42-2.56,3.26-9.29,11.23-13.36,11.85-4.2.65-7.83-3.16-11.37-4.89-1.1-.54-3.3-1.6-4.44-1.77-.35-.06-.36.22-.55.25-4.49.58-7.75,2.35-12.59,2.33-2.28-.01-5.63-.22-7.82-.69-2.39-.53-4.71-1.51-7.09-2.07l-.19-.55,1.32-2.55c.04-.4.04-.8.16-1.2,1.22-4.19.62-5.25-.28-9.21-.38-1.68.78-1.87,1.61-3.06,2.45-3.47,4.39-9.01,2.35-13.04-.28-.55-1.32-1.52-1.23-1.9,1.66-1.78,3.74-3.39,4.76-5.63.46.05.29.12.35.37.28,1.19.09,2.78.27,4.06.62,4.4,3.21,8.58,6.54,11.43,3.16,2.72,10.73,7.3,14.6,4.08,1.03-.87,1.9-3.06,1.47-4.38-.75-2.25-4.83-3.25-6.84-4.64-6.94-4.78-8.22-12.78-2.66-19.31.89-1.05,2.27-1.96,3.21-2.98,2.64-2.87,4.64-6.81,5.46-10.63,1.32-6.18-2.4-14.11-6.67-18.48-.47-.89,1.22-1.91,1.81-2.63,6.92-8.31,7.78-18.75,18.17-24.07,1.36-.69,4.74-1.36,6.25-1.13,1.85.27,3.83,1.37,4.73,3.05,1.73,3.25-2.37,6.98-3.92,9.54-2.79,4.58-4.88,11.22-4.79,16.54.11,6.81,4.34,12.87,3.64,19.83-.49,4.86-3.29,11.04.37,15.17,2.68,3.01,10.81,6.12,14.7,8.58,2.02,1.27,4.62,2.56,4.4,5.31Z"/>
  </g>
  <g>
    <path class="uuid-4377002e-5504-4869-81af-5a599eda33a1" d="M88.03,403.59c-14.35,0-26.23-4.75-35.63-14.24-9.4-9.49-14.1-21.32-14.1-35.49s4.7-26,14.1-35.49c9.4-9.49,21.28-14.24,35.63-14.24,8.63,0,16.62,2.04,23.98,6.13,7.36,4.09,13.13,9.58,17.3,16.49l-21.12,12.13c-1.82-3.36-4.52-6.02-8.11-7.97-3.59-1.95-7.61-2.93-12.06-2.93-7.63,0-13.79,2.38-18.46,7.15-4.68,4.77-7.02,11.02-7.02,18.74s2.34,13.97,7.02,18.74c4.68,4.77,10.83,7.15,18.46,7.15,4.45,0,8.47-.98,12.06-2.93,3.59-1.95,6.29-4.65,8.11-8.11l21.12,12.26c-4.18,7-9.93,12.51-17.24,16.55-7.31,4.04-15.33,6.06-24.05,6.06Z"/>
    <path class="uuid-4377002e-5504-4869-81af-5a599eda33a1" d="M158.48,375.8c2.27,5.54,7.36,8.31,15.26,8.31,4.91,0,9.04-1.59,12.4-4.77l16.35,11.45c-6.72,8.45-16.49,12.67-29.29,12.67-11.54,0-20.78-3.38-27.73-10.15-6.95-6.77-10.42-15.33-10.42-25.68s3.41-18.85,10.22-25.75c6.81-6.9,15.49-10.36,26.02-10.36s18.58,3.41,25.21,10.22c6.63,6.81,9.95,15.35,9.95,25.62,0,3-.32,5.81-.95,8.45h-47.01ZM158.2,360.13h26.16c-1.82-6.36-6.09-9.54-12.81-9.54s-11.45,3.18-13.35,9.54Z"/>
    <path class="uuid-4377002e-5504-4869-81af-5a599eda33a1" d="M236.01,375.8c2.27,5.54,7.36,8.31,15.26,8.31,4.91,0,9.04-1.59,12.4-4.77l16.35,11.45c-6.72,8.45-16.49,12.67-29.29,12.67-11.54,0-20.78-3.38-27.73-10.15-6.95-6.77-10.42-15.33-10.42-25.68s3.41-18.85,10.22-25.75c6.81-6.9,15.49-10.36,26.02-10.36s18.58,3.41,25.21,10.22c6.63,6.81,9.95,15.35,9.95,25.62,0,3-.32,5.81-.95,8.45h-47.01ZM235.73,360.13h26.16c-1.82-6.36-6.09-9.54-12.81-9.54s-11.45,3.18-13.35,9.54Z"/>
    <path class="uuid-4377002e-5504-4869-81af-5a599eda33a1" d="M341.47,306.17h22.62v95.38h-22.62v-6.27c-4.63,5.45-11.08,8.17-19.35,8.17-9.08,0-16.69-3.43-22.82-10.29-6.13-6.86-9.2-15.42-9.2-25.68s3.07-18.83,9.2-25.68c6.13-6.86,13.74-10.29,22.82-10.29,8.27,0,14.72,2.72,19.35,8.17v-33.52ZM316.81,378.25c2.63,2.73,6.08,4.09,10.36,4.09s7.72-1.36,10.36-4.09c2.63-2.72,3.95-6.31,3.95-10.76s-1.32-8.04-3.95-10.76c-2.64-2.72-6.09-4.09-10.36-4.09s-7.72,1.36-10.36,4.09c-2.64,2.73-3.95,6.31-3.95,10.76s1.32,8.04,3.95,10.76Z"/>
    <path class="uuid-4377002e-5504-4869-81af-5a599eda33a1" d="M455.38,331.51c7.9,0,14.15,2.52,18.74,7.56,4.59,5.04,6.88,11.97,6.88,20.78v41.69h-22.75v-39.11c0-6.36-2.82-9.54-8.45-9.54-3.09,0-5.43,1.02-7.02,3.07-1.59,2.04-2.38,4.84-2.38,8.38v37.2h-22.62v-39.11c0-6.36-2.86-9.54-8.58-9.54-3.09,0-5.43,1.02-7.02,3.07-1.59,2.04-2.38,4.84-2.38,8.38v37.2h-22.62v-68.13h22.62v6.4c4.18-5.54,10.31-8.31,18.39-8.31s13.63,2.91,17.44,8.72c4.72-5.81,11.31-8.72,19.76-8.72Z"/>
    <path class="uuid-4377002e-5504-4869-81af-5a599eda33a1" d="M541.22,333.42h22.62v68.13h-22.62v-6.27c-4.63,5.45-11.08,8.17-19.35,8.17-9.08,0-16.69-3.43-22.82-10.29-6.13-6.86-9.2-15.42-9.2-25.68s3.07-18.83,9.2-25.68c6.13-6.86,13.74-10.29,22.82-10.29,8.26,0,14.72,2.72,19.35,8.17v-6.27ZM516.56,378.25c2.63,2.73,6.08,4.09,10.36,4.09s7.72-1.36,10.36-4.09c2.63-2.72,3.95-6.31,3.95-10.76s-1.32-8.04-3.95-10.76c-2.64-2.72-6.09-4.09-10.36-4.09s-7.72,1.36-10.36,4.09c-2.64,2.73-3.95,6.31-3.95,10.76s1.32,8.04,3.95,10.76Z"/>
    <path class="uuid-4377002e-5504-4869-81af-5a599eda33a1" d="M599.53,346.09c1.27-4.45,3.81-7.9,7.63-10.36,3.82-2.45,8.08-3.68,12.81-3.68v25.07c-5.18-.82-9.88.14-14.1,2.86-4.22,2.72-6.33,7.18-6.33,13.35v28.21h-22.62v-68.13h22.62v12.67Z"/>
    <path class="uuid-4377002e-5504-4869-81af-5a599eda33a1" d="M672.56,355.08h-14.17v19.76c0,3,1.09,4.86,3.27,5.59,2.18.73,5.81.95,10.9.68v20.44c-13.54,1.63-23.05.39-28.54-3.75-5.5-4.13-8.24-11.6-8.24-22.41v-20.3h-10.22v-21.67h10.22v-12.26l22.62-6.81v19.08h14.17v21.67Z"/>
  </g>
  <text class="uuid-448575f0-bc53-4545-8e2e-cde6d7041af7" transform="translate(88.39 466.01)"><tspan x="0" y="0">GENERAL MERCHANDISE</tspan></text>
  <path class="uuid-c4f5f387-e5c2-4423-8eef-da66c0693855" d="M355.57,44.2l13.29-5.89c4.47-1.98,9.69-1.06,13.2,2.34l10.46,10.09,14.5-.99c4.87-.33,9.46,2.32,11.61,6.71l6.38,13.06,13.97,4.03c4.69,1.35,8.1,5.42,8.61,10.28l1.52,14.46,11.75,8.56c3.95,2.88,5.76,7.86,4.58,12.6l-3.51,14.11,8.11,12.06c2.72,4.05,2.72,9.36,0,13.41l-8.12,12.05,3.49,14.11c1.17,4.74-.64,9.72-4.59,12.59l-11.76,8.55-1.54,14.45c-.52,4.86-3.93,8.92-8.62,10.26l-13.97,4.01-6.39,13.05c-2.15,4.39-6.74,7.03-11.61,6.7l-14.5-1.01-10.47,10.08c-3.52,3.39-8.74,4.3-13.2,2.32l-13.28-5.91-13.29,5.89c-4.47,1.98-9.69,1.06-13.2-2.34l-10.46-10.09-14.5.99c-4.87.33-9.46-2.32-11.61-6.71l-6.38-13.06-13.97-4.03c-4.69-1.35-8.1-5.42-8.61-10.28l-1.52-14.46-11.75-8.56c-3.95-2.88-5.76-7.86-4.58-12.6l3.51-14.11-8.11-12.06c-2.72-4.05-2.72-9.36,0-13.41l8.12-12.05-3.49-14.11c-1.17-4.74.64-9.72,4.59-12.59l11.76-8.55,1.54-14.45c.52-4.86,3.93-8.92,8.62-10.26l13.97-4.01,6.39-13.05c2.15-4.39,6.74-7.03,11.61-6.7l14.5,1.01,10.47-10.08c3.52-3.39,8.74-4.3,13.2-2.32l13.28,5.91Z"/>
  <g>
    <rect class="uuid-afec4e5a-da94-4f74-926c-3534dfe60eab" x="300.96" y="100.33" width="110.02" height="28.4" rx="14.2" ry="14.2"/>
    <rect class="uuid-afec4e5a-da94-4f74-926c-3534dfe60eab" x="300.96" y="175.77" width="68" height="28.4" rx="14.2" ry="14.2"/>
    <rect class="uuid-afec4e5a-da94-4f74-926c-3534dfe60eab" x="300.96" y="138.05" width="88.17" height="28.4" rx="14.2" ry="14.2"/>
  </g>
</svg>