<?xml version="1.0" encoding="UTF-8"?>
<svg id="uuid-a817ab55-3daa-4267-9676-edf2c274c32e" data-name="Layer 1" xmlns="http://www.w3.org/2000/svg" viewBox="0 0 711.54 240.97">
  <defs>
    <style>
      .uuid-09052e2a-fa13-4760-a2e2-69b3aa0c6a6f {
        fill: #05007f;
      }
    </style>
  </defs>
  <g>
    <path class="uuid-09052e2a-fa13-4760-a2e2-69b3aa0c6a6f" d="M88.37,136.34c-14.35,0-26.23-4.75-35.63-14.24-9.4-9.49-14.1-21.32-14.1-35.49s4.7-26,14.1-35.49c9.4-9.49,21.28-14.24,35.63-14.24,8.63,0,16.62,2.04,23.98,6.13,7.36,4.09,13.12,9.58,17.3,16.49l-21.12,12.13c-1.82-3.36-4.52-6.02-8.11-7.97-3.59-1.95-7.61-2.93-12.06-2.93-7.63,0-13.79,2.38-18.46,7.15-4.68,4.77-7.02,11.02-7.02,18.74s2.34,13.97,7.02,18.73c4.68,4.77,10.83,7.16,18.46,7.16,4.45,0,8.47-.98,12.06-2.93,3.59-1.95,6.29-4.66,8.11-8.11l21.12,12.26c-4.18,7-9.93,12.51-17.24,16.55-7.31,4.04-15.33,6.06-24.05,6.06Z"/>
    <path class="uuid-09052e2a-fa13-4760-a2e2-69b3aa0c6a6f" d="M158.82,108.55c2.27,5.54,7.36,8.31,15.26,8.31,4.91,0,9.04-1.59,12.4-4.77l16.35,11.45c-6.72,8.45-16.49,12.67-29.3,12.67-11.54,0-20.78-3.38-27.73-10.15-6.95-6.77-10.42-15.33-10.42-25.68s3.41-18.85,10.22-25.75c6.81-6.9,15.49-10.35,26.02-10.35s18.58,3.41,25.21,10.22c6.63,6.81,9.95,15.35,9.95,25.61,0,3-.32,5.81-.95,8.45h-47.01ZM158.54,92.88h26.16c-1.82-6.36-6.09-9.54-12.81-9.54s-11.45,3.18-13.35,9.54Z"/>
    <path class="uuid-09052e2a-fa13-4760-a2e2-69b3aa0c6a6f" d="M236.34,108.55c2.27,5.54,7.36,8.31,15.26,8.31,4.91,0,9.04-1.59,12.4-4.77l16.35,11.45c-6.72,8.45-16.49,12.67-29.3,12.67-11.54,0-20.78-3.38-27.73-10.15-6.95-6.77-10.42-15.33-10.42-25.68s3.41-18.85,10.22-25.75c6.81-6.9,15.49-10.35,26.02-10.35s18.58,3.41,25.21,10.22c6.63,6.81,9.95,15.35,9.95,25.61,0,3-.32,5.81-.95,8.45h-47.01ZM236.07,92.88h26.16c-1.82-6.36-6.09-9.54-12.81-9.54s-11.45,3.18-13.35,9.54Z"/>
    <path class="uuid-09052e2a-fa13-4760-a2e2-69b3aa0c6a6f" d="M341.81,38.92h22.62v95.38h-22.62v-6.27c-4.63,5.45-11.08,8.18-19.35,8.18-9.08,0-16.69-3.43-22.82-10.29-6.13-6.86-9.2-15.42-9.2-25.68s3.07-18.82,9.2-25.68c6.13-6.86,13.74-10.29,22.82-10.29,8.26,0,14.72,2.73,19.35,8.18v-33.52ZM317.15,111c2.63,2.73,6.08,4.09,10.35,4.09s7.72-1.36,10.35-4.09c2.64-2.73,3.95-6.31,3.95-10.76s-1.32-8.04-3.95-10.76-6.09-4.09-10.35-4.09-7.72,1.36-10.35,4.09c-2.64,2.73-3.95,6.31-3.95,10.76s1.31,8.04,3.95,10.76Z"/>
    <path class="uuid-09052e2a-fa13-4760-a2e2-69b3aa0c6a6f" d="M455.72,64.27c7.9,0,14.15,2.52,18.74,7.56,4.58,5.04,6.88,11.97,6.88,20.78v41.69h-22.76v-39.11c0-6.36-2.82-9.54-8.45-9.54-3.09,0-5.43,1.02-7.02,3.06-1.59,2.04-2.38,4.84-2.38,8.38v37.2h-22.62v-39.11c0-6.36-2.86-9.54-8.58-9.54-3.09,0-5.43,1.02-7.02,3.06-1.59,2.04-2.38,4.84-2.38,8.38v37.2h-22.62v-68.13h22.62v6.4c4.18-5.54,10.31-8.31,18.39-8.31s13.62,2.91,17.44,8.72c4.72-5.81,11.31-8.72,19.76-8.72Z"/>
    <path class="uuid-09052e2a-fa13-4760-a2e2-69b3aa0c6a6f" d="M541.56,66.17h22.62v68.13h-22.62v-6.27c-4.63,5.45-11.08,8.18-19.35,8.18-9.08,0-16.69-3.43-22.82-10.29-6.13-6.86-9.2-15.42-9.2-25.68s3.06-18.82,9.2-25.68c6.13-6.86,13.74-10.29,22.82-10.29,8.26,0,14.72,2.73,19.35,8.18v-6.27ZM516.89,111c2.64,2.73,6.08,4.09,10.36,4.09s7.72-1.36,10.35-4.09c2.63-2.73,3.95-6.31,3.95-10.76s-1.32-8.04-3.95-10.76c-2.64-2.73-6.09-4.09-10.35-4.09s-7.72,1.36-10.36,4.09c-2.64,2.73-3.95,6.31-3.95,10.76s1.32,8.04,3.95,10.76Z"/>
    <path class="uuid-09052e2a-fa13-4760-a2e2-69b3aa0c6a6f" d="M599.87,78.84c1.27-4.45,3.81-7.9,7.63-10.35,3.82-2.45,8.08-3.68,12.81-3.68v25.07c-5.18-.82-9.88.14-14.1,2.86-4.22,2.73-6.33,7.18-6.33,13.35v28.2h-22.62v-68.13h22.62v12.67Z"/>
    <path class="uuid-09052e2a-fa13-4760-a2e2-69b3aa0c6a6f" d="M672.9,87.84h-14.17v19.76c0,3,1.09,4.86,3.27,5.58,2.18.73,5.81.96,10.9.68v20.44c-13.54,1.64-23.05.39-28.55-3.75-5.5-4.13-8.24-11.6-8.24-22.41v-20.3h-10.22v-21.66h10.22v-12.26l22.62-6.81v19.08h14.17v21.66Z"/>
  </g>
  <g>
    <path class="uuid-09052e2a-fa13-4760-a2e2-69b3aa0c6a6f" d="M52.52,176.49c-7.11,0-10.12,6.57-10.12,12.17s2.17,12.21,9.7,12.21c5.35,0,9.74-3.85,9.74-9.45h-9.74v-3.35h13.51v15.56h-2.51l-1.25-4.22h-.08c-2.26,3.14-5.06,4.81-9.66,4.81-8.7,0-13.47-6.52-13.47-15.56s5.6-15.51,13.88-15.51c7.57,0,11.54,3.93,12.59,9.62h-3.76c-.88-4.26-4.31-6.27-8.82-6.27Z"/>
    <path class="uuid-09052e2a-fa13-4760-a2e2-69b3aa0c6a6f" d="M98.13,186.48v3.35h-15.35v10.45h17.86v3.35h-21.62v-29.9h21.12v3.34h-17.35v9.41h15.35Z"/>
    <path class="uuid-09052e2a-fa13-4760-a2e2-69b3aa0c6a6f" d="M113.26,173.73h4.6l14.93,24.63h.08v-24.63h3.76v29.9h-4.6l-14.93-24.55h-.08v24.55h-3.76v-29.9Z"/>
    <path class="uuid-09052e2a-fa13-4760-a2e2-69b3aa0c6a6f" d="M169.58,186.48v3.35h-15.35v10.45h17.86v3.35h-21.62v-29.9h21.12v3.34h-17.35v9.41h15.35Z"/>
    <path class="uuid-09052e2a-fa13-4760-a2e2-69b3aa0c6a6f" d="M184.71,173.73h12.13c5.9,0,9.87,3.18,9.87,8.49,0,4.31-2.05,6.69-5.35,7.53v.08c6.65,1.3,4.22,13.05,5.77,13.55v.25h-4.06c-1.3-1.26,1.55-12.09-6.02-12.09h-8.57v12.09h-3.76v-29.9ZM188.48,188.2h7.48c3.09,0,6.98-.38,6.98-5.56s-3.89-5.56-6.98-5.56h-7.48v11.12Z"/>
    <path class="uuid-09052e2a-fa13-4760-a2e2-69b3aa0c6a6f" d="M223.55,196.14l-2.63,7.49h-3.89l11.04-29.9h4.18l11,29.9h-3.89l-2.64-7.49h-13.17ZM235.51,192.8l-5.31-15.6h-.09l-5.31,15.6h10.71Z"/>
    <path class="uuid-09052e2a-fa13-4760-a2e2-69b3aa0c6a6f" d="M258.46,173.73v26.55h15.68v3.35h-19.44v-29.9h3.76Z"/>
    <path class="uuid-09052e2a-fa13-4760-a2e2-69b3aa0c6a6f" d="M302.69,173.73h5.14l9.37,24.84h.08l9.37-24.84h5.14v29.9h-3.76v-24.59h-.09l-9.03,24.59h-3.35l-9.03-24.59h-.08v24.59h-3.76v-29.9Z"/>
    <path class="uuid-09052e2a-fa13-4760-a2e2-69b3aa0c6a6f" d="M364.74,186.48v3.35h-15.35v10.45h17.86v3.35h-21.62v-29.9h21.12v3.34h-17.35v9.41h15.35Z"/>
    <path class="uuid-09052e2a-fa13-4760-a2e2-69b3aa0c6a6f" d="M379.87,173.73h12.13c5.9,0,9.87,3.18,9.87,8.49,0,4.31-2.05,6.69-5.35,7.53v.08c6.65,1.3,4.22,13.05,5.77,13.55v.25h-4.06c-1.3-1.26,1.55-12.09-6.02-12.09h-8.57v12.09h-3.76v-29.9ZM383.63,188.2h7.49c3.09,0,6.98-.38,6.98-5.56s-3.89-5.56-6.98-5.56h-7.49v11.12Z"/>
    <path class="uuid-09052e2a-fa13-4760-a2e2-69b3aa0c6a6f" d="M427.28,176.49c-7.11,0-10.08,6.15-10.08,12.17s2.97,12.21,10.08,12.21c6.27,0,8.7-4.26,8.95-8.03h3.76c-.67,6.61-5.35,11.37-12.71,11.37-8.2,0-13.84-6.52-13.84-15.56s5.64-15.51,13.84-15.51c7.32,0,12,4.77,12.71,10.45h-3.76c-.55-2.84-2.72-7.11-8.95-7.11Z"/>
    <path class="uuid-09052e2a-fa13-4760-a2e2-69b3aa0c6a6f" d="M456.21,173.73v12.71h15.98v-12.71h3.76v29.9h-3.76v-13.84h-15.98v13.84h-3.76v-29.9h3.76Z"/>
    <path class="uuid-09052e2a-fa13-4760-a2e2-69b3aa0c6a6f" d="M493.92,196.14l-2.64,7.49h-3.89l11.04-29.9h4.18l11,29.9h-3.89l-2.63-7.49h-13.17ZM505.88,192.8l-5.31-15.6h-.08l-5.31,15.6h10.71Z"/>
    <path class="uuid-09052e2a-fa13-4760-a2e2-69b3aa0c6a6f" d="M525.07,173.73h4.6l14.93,24.63h.09v-24.63h3.76v29.9h-4.6l-14.93-24.55h-.08v24.55h-3.76v-29.9Z"/>
    <path class="uuid-09052e2a-fa13-4760-a2e2-69b3aa0c6a6f" d="M562.28,173.73h10.83c8.24,0,13.3,5.35,13.3,14.97s-5.06,14.93-13.3,14.93h-10.83v-29.9ZM566.04,200.28h7.07c7.61,0,9.54-5.73,9.54-11.58s-1.93-11.63-9.54-11.63h-7.07v23.21Z"/>
    <path class="uuid-09052e2a-fa13-4760-a2e2-69b3aa0c6a6f" d="M602.95,173.73v29.9h-3.76v-29.9h3.76Z"/>
    <path class="uuid-09052e2a-fa13-4760-a2e2-69b3aa0c6a6f" d="M638.75,195.81c0,4.35-3.22,8.41-10.79,8.41-7.07,0-12.54-3.76-12.96-10.62h3.76c.42,4.1,2.93,7.28,9.2,7.28,5.19,0,7.03-2.38,7.03-5.06,0-4.1-2.22-4.85-8.91-6.4-4.47-1.05-9.83-2.59-9.83-8.4,0-4.73,3.64-7.86,10.25-7.86s10.79,3.26,11.29,9.45h-3.76c-.54-4.01-2.8-6.1-7.52-6.1-4.23,0-6.48,1.63-6.48,4.1,0,3.97,3.22,4.52,7.61,5.6,6.73,1.67,11.13,2.8,11.13,9.62Z"/>
    <path class="uuid-09052e2a-fa13-4760-a2e2-69b3aa0c6a6f" d="M670.39,186.48v3.35h-15.35v10.45h17.86v3.35h-21.62v-29.9h21.12v3.34h-17.36v9.41h15.35Z"/>
  </g>
</svg>