<?xml version="1.0" encoding="UTF-8"?>
<svg id="uuid-05f70078-d92d-4f3d-af46-f61d44e38e96" data-name="Layer 1" xmlns="http://www.w3.org/2000/svg" viewBox="0 0 296.67 303.75">
  <defs>
    <style>
      .uuid-bdb51c3f-a2b0-4a7c-8eb8-dc8957639a6f {
        fill: #fff;
      }
    </style>
  </defs>
  <path d="M148.41,43.69l13.29-5.89c4.47-1.98,9.69-1.06,13.2,2.34l10.46,10.09,14.5-.99c4.87-.33,9.46,2.32,11.61,6.71l6.38,13.06,13.97,4.03c4.69,1.35,8.1,5.42,8.61,10.28l1.52,14.46,11.75,8.56c3.95,2.88,5.76,7.86,4.58,12.6l-3.51,14.11,8.11,12.06c2.72,4.05,2.72,9.36,0,13.41l-8.12,12.05,3.49,14.11c1.17,4.74-.64,9.72-4.59,12.59l-11.76,8.55-1.54,14.45c-.52,4.86-3.93,8.92-8.62,10.26l-13.97,4.01-6.39,13.05c-2.15,4.39-6.74,7.03-11.61,6.7l-14.5-1.01-10.47,10.08c-3.52,3.39-8.74,4.3-13.2,2.32l-13.28-5.91-13.29,5.89c-4.47,1.98-9.69,1.06-13.2-2.34l-10.46-10.09-14.5.99c-4.87.33-9.46-2.32-11.61-6.71l-6.38-13.06-13.97-4.03c-4.69-1.35-8.1-5.42-8.61-10.28l-1.52-14.46-11.75-8.56c-3.95-2.88-5.76-7.86-4.58-12.6l3.51-14.11-8.11-12.06c-2.72-4.05-2.72-9.36,0-13.41l8.12-12.05-3.49-14.11c-1.17-4.74.64-9.72,4.59-12.59l11.76-8.55,1.54-14.45c.52-4.86,3.93-8.92,8.62-10.26l13.97-4.01,6.39-13.05c2.15-4.39,6.74-7.03,11.61-6.7l14.5,1.01,10.47-10.08c3.52-3.39,8.74-4.3,13.2-2.32l13.28,5.91Z"/>
  <g>
    <rect class="uuid-bdb51c3f-a2b0-4a7c-8eb8-dc8957639a6f" x="93.33" y="99.81" width="110.02" height="28.4" rx="14.2" ry="14.2"/>
    <rect class="uuid-bdb51c3f-a2b0-4a7c-8eb8-dc8957639a6f" x="93.33" y="175.25" width="68" height="28.4" rx="14.2" ry="14.2"/>
    <rect class="uuid-bdb51c3f-a2b0-4a7c-8eb8-dc8957639a6f" x="93.33" y="137.53" width="88.17" height="28.4" rx="14.2" ry="14.2"/>
  </g>
</svg>