<?xml version="1.0" encoding="UTF-8"?>
<svg id="uuid-ebfe475d-50c7-4b3f-be6d-1c383ec183a5" data-name="Layer 1" xmlns="http://www.w3.org/2000/svg" xmlns:xlink="http://www.w3.org/1999/xlink" viewBox="0 0 431.96 439.96">
  <defs>
    <style>
      .uuid-d6195c0b-f99e-4feb-8062-decd658c3d5c, .uuid-bc1cffbe-dafb-46ec-a76d-b2a375b70384 {
        fill: #05007f;
      }

      .uuid-86b11542-d971-4c20-a739-0445a591e590 {
        fill: url(#uuid-98f84a26-e654-4340-ad26-6ed002bb2dfe);
      }

      .uuid-2f3d6358-127c-4c93-9bcd-207502be0bd6 {
        fill: #ffce00;
      }

      .uuid-bc1cffbe-dafb-46ec-a76d-b2a375b70384 {
        font-family: Gilroy-Bold, Gilroy-Bold;
        font-size: 43.41px;
        font-weight: 700;
      }
    </style>
    <linearGradient id="uuid-98f84a26-e654-4340-ad26-6ed002bb2dfe" x1="133.83" y1="140.47" x2="298.13" y2="304.76" gradientUnits="userSpaceOnUse">
      <stop offset="0" stop-color="#15a6ff"/>
      <stop offset=".45" stop-color="#0037bf"/>
      <stop offset="1" stop-color="#05007f"/>
    </linearGradient>
  </defs>
  <text class="uuid-bc1cffbe-dafb-46ec-a76d-b2a375b70384" transform="translate(102.77 115.69) rotate(-40.86)"><tspan x="0" y="0">C</tspan></text>
  <text class="uuid-bc1cffbe-dafb-46ec-a76d-b2a375b70384" transform="translate(130.17 93.08) rotate(-29.34)"><tspan x="0" y="0">E</tspan></text>
  <text class="uuid-bc1cffbe-dafb-46ec-a76d-b2a375b70384" transform="translate(154.49 79.89) rotate(-19.06)"><tspan x="0" y="0">E</tspan></text>
  <text class="uuid-bc1cffbe-dafb-46ec-a76d-b2a375b70384" transform="translate(180.4 70.98) rotate(-7.41)"><tspan x="0" y="0">D</tspan></text>
  <text class="uuid-bc1cffbe-dafb-46ec-a76d-b2a375b70384" transform="translate(215.13 66.69) rotate(6.12)"><tspan x="0" y="0">M</tspan></text>
  <text class="uuid-bc1cffbe-dafb-46ec-a76d-b2a375b70384" transform="translate(254.18 71.71) rotate(19.55)"><tspan x="0" y="0">A</tspan></text>
  <text class="uuid-bc1cffbe-dafb-46ec-a76d-b2a375b70384" transform="translate(285.37 83.4) rotate(31.48)"><tspan x="0" y="0">R</tspan></text>
  <text class="uuid-bc1cffbe-dafb-46ec-a76d-b2a375b70384" transform="translate(311.16 99.8) rotate(42.12)"><tspan x="0" y="0">T</tspan></text>
  <text class="uuid-bc1cffbe-dafb-46ec-a76d-b2a375b70384" transform="translate(40.49 177.21) rotate(99.04)"><tspan x="0" y="0">G</tspan></text>
  <text class="uuid-bc1cffbe-dafb-46ec-a76d-b2a375b70384" transform="translate(35.22 220.54) rotate(87.06)"><tspan x="0" y="0">E</tspan></text>
  <text class="uuid-bc1cffbe-dafb-46ec-a76d-b2a375b70384" transform="translate(37.5 252.94) rotate(75.77)"><tspan x="0" y="0">N</tspan></text>
  <text class="uuid-bc1cffbe-dafb-46ec-a76d-b2a375b70384" transform="translate(48.21 290.08) rotate(64.4)"><tspan x="0" y="0">E</tspan></text>
  <text class="uuid-bc1cffbe-dafb-46ec-a76d-b2a375b70384" transform="translate(62.82 318.93) rotate(53.56)"><tspan x="0" y="0">R</tspan></text>
  <text class="uuid-bc1cffbe-dafb-46ec-a76d-b2a375b70384" transform="translate(85.02 347.54) rotate(41.78)"><tspan x="0" y="0">A</tspan></text>
  <text class="uuid-bc1cffbe-dafb-46ec-a76d-b2a375b70384" transform="translate(114.41 372.11) rotate(30.93)"><tspan x="0" y="0">L</tspan></text>
  <text class="uuid-bc1cffbe-dafb-46ec-a76d-b2a375b70384" transform="translate(140.23 386.49) rotate(23.11)"><tspan x="0" y="0"> </tspan></text>
  <text class="uuid-bc1cffbe-dafb-46ec-a76d-b2a375b70384" transform="translate(158.66 394.65) rotate(12.77)"><tspan x="0" y="0">M</tspan></text>
  <text class="uuid-bc1cffbe-dafb-46ec-a76d-b2a375b70384" transform="translate(202.75 402.83) rotate(.93)"><tspan x="0" y="0">E</tspan></text>
  <text class="uuid-bc1cffbe-dafb-46ec-a76d-b2a375b70384" transform="translate(235.23 402.51) rotate(-10.26)"><tspan x="0" y="0">R</tspan></text>
  <text class="uuid-bc1cffbe-dafb-46ec-a76d-b2a375b70384" transform="translate(270.51 395.37) rotate(-22.53)"><tspan x="0" y="0">C</tspan></text>
  <text class="uuid-bc1cffbe-dafb-46ec-a76d-b2a375b70384" transform="translate(307.83 378.6) rotate(-35.12)"><tspan x="0" y="0">H</tspan></text>
  <text class="uuid-bc1cffbe-dafb-46ec-a76d-b2a375b70384" transform="translate(338.76 355.6) rotate(-47.29)"><tspan x="0" y="0">A</tspan></text>
  <text class="uuid-bc1cffbe-dafb-46ec-a76d-b2a375b70384" transform="translate(364.22 326.5) rotate(-59.55)"><tspan x="0" y="0">N</tspan></text>
  <text class="uuid-bc1cffbe-dafb-46ec-a76d-b2a375b70384" transform="translate(383.13 292.39) rotate(-72.26)"><tspan x="0" y="0">D</tspan></text>
  <text class="uuid-bc1cffbe-dafb-46ec-a76d-b2a375b70384" transform="translate(393.79 253.88) rotate(-81.95)"><tspan x="0" y="0">I</tspan></text>
  <text class="uuid-bc1cffbe-dafb-46ec-a76d-b2a375b70384" transform="translate(396.6 233.94) rotate(-90.93)"><tspan x="0" y="0">S</tspan></text>
  <text class="uuid-bc1cffbe-dafb-46ec-a76d-b2a375b70384" transform="translate(395.34 199.82) rotate(-100.82)"><tspan x="0" y="0">E</tspan></text>
  <ellipse class="uuid-d6195c0b-f99e-4feb-8062-decd658c3d5c" cx="71.27" cy="138.02" rx="6.52" ry="7.06"/>
  <ellipse class="uuid-d6195c0b-f99e-4feb-8062-decd658c3d5c" cx="362.92" cy="138.02" rx="6.52" ry="7.06"/>
  <path class="uuid-86b11542-d971-4c20-a739-0445a591e590" d="M216.05,114.57l13.29-5.89c4.47-1.98,9.69-1.06,13.2,2.34l10.46,10.09,14.5-.99c4.87-.33,9.46,2.32,11.61,6.71l6.38,13.06,13.97,4.03c4.69,1.35,8.1,5.42,8.61,10.28l1.52,14.46,11.75,8.56c3.95,2.88,5.76,7.86,4.58,12.6l-3.51,14.11,8.11,12.06c2.72,4.05,2.72,9.36,0,13.41l-8.12,12.05,3.49,14.11c1.17,4.74-.64,9.72-4.59,12.59l-11.76,8.55-1.54,14.45c-.52,4.86-3.93,8.92-8.62,10.26l-13.97,4.01-6.39,13.05c-2.15,4.39-6.74,7.03-11.61,6.7l-14.5-1.01-10.47,10.08c-3.52,3.39-8.74,4.3-13.2,2.32l-13.28-5.91-13.29,5.89c-4.47,1.98-9.69,1.06-13.2-2.34l-10.46-10.09-14.5.99c-4.87.33-9.46-2.32-11.61-6.71l-6.38-13.06-13.97-4.03c-4.69-1.35-8.1-5.42-8.61-10.28l-1.52-14.46-11.75-8.56c-3.95-2.88-5.76-7.86-4.58-12.6l3.51-14.11-8.11-12.06c-2.72-4.05-2.72-9.36,0-13.41l8.12-12.05-3.49-14.11c-1.17-4.74.64-9.72,4.59-12.59l11.76-8.55,1.54-14.45c.52-4.86,3.93-8.92,8.62-10.26l13.97-4.01,6.39-13.05c2.15-4.39,6.74-7.03,11.61-6.7l14.5,1.01,10.47-10.08c3.52-3.39,8.74-4.3,13.2-2.32l13.28,5.91Z"/>
  <g>
    <rect class="uuid-2f3d6358-127c-4c93-9bcd-207502be0bd6" x="160.97" y="170.69" width="110.02" height="28.4" rx="14.2" ry="14.2"/>
    <rect class="uuid-2f3d6358-127c-4c93-9bcd-207502be0bd6" x="160.97" y="246.13" width="68" height="28.4" rx="14.2" ry="14.2"/>
    <rect class="uuid-2f3d6358-127c-4c93-9bcd-207502be0bd6" x="160.97" y="208.41" width="88.17" height="28.4" rx="14.2" ry="14.2"/>
  </g>
</svg>